<svg xmlns="http://www.w3.org/2000/svg" viewBox="0 0 100 100"><path d="M38 93 L0 2 L22 82 Z" fill="#5fb1e1" stroke="#7e2619" stroke-width="0.5"/><path d="M99 38 L16 40 L87 95 Z" fill="#7235ca" stroke="#464c4e" stroke-width="0.5"/><path d="M20 32 L91 34 L69 29 Z" fill="#e99782" stroke="#d91ba1" stroke-width="0.5"/><path d="M8 53 L99 95 L38 46 Z" fill="#f6b6e5" stroke="#0e0ad3" stroke-width="0.5"/><path d="M10 40 L64 66 L76 83 Z" fill="#5a6411" stroke="#a1e551" stroke-width="0.5"/><path d="M96 89 L79 27 L2 65 Z" fill="#fe2b76" stroke="#411410" stroke-width="0.5"/><path d="M56 39 L51 14 L38 23 Z" fill="#4b9f73" stroke="#8b663b" stroke-width="0.5"/><path d="M61 62 L39 55 L93 90 Z" fill="#2980f0" stroke="#65e076" stroke-width="0.5"/><path d="M14 4 L6 74 L60 58 Z" fill="#d7851b" stroke="#b8a0f1" stroke-width="0.5"/><path d="M7 57 L60 40 L84 46 Z" fill="#1ee8c1" stroke="#5a3b54" stroke-width="0.5"/><path d="M99 69 L80 20 L98 8 Z" fill="#34069d" stroke="#1ae500" stroke-width="0.5"/><path d="M44 13 L24 23 L84 59 Z" fill="#91fbc2" stroke="#94b10d" stroke-width="0.5"/><path d="M42 13 L63 57 L18 35 Z" fill="#02af3d" stroke="#e78360" stroke-width="0.5"/><path d="M54 92 L63 52 L53 8 Z" fill="#020b57" stroke="#bfa389" stroke-width="0.5"/><path d="M50 30 L41 62 L53 73 Z" fill="#4f1d93" stroke="#0f3743" stroke-width="0.5"/><path d="M95 50 L18 83 L38 45 Z" fill="#13a596" stroke="#fe8548" stroke-width="0.5"/><path d="M40 83 L29 82 L8 35 Z" fill="#5f37d2" stroke="#ce26b2" stroke-width="0.5"/><path d="M44 16 L57 50 L40 19 Z" fill="#2ac478" stroke="#bf9df3" stroke-width="0.5"/><path d="M10 88 L6 76 L50 65 Z" fill="#77b0bf" stroke="#c51029" stroke-width="0.5"/><path d="M60 68 L71 15 L23 61 Z" fill="#c3e52a" stroke="#9ddfe9" stroke-width="0.5"/><path d="M82 35 L24 11 L52 44 Z" fill="#73dce3" stroke="#4e1e4c" stroke-width="0.5"/><path d="M53 15 L97 27 L72 3 Z" fill="#b6f7fb" stroke="#c88850" stroke-width="0.5"/><path d="M54 52 L44 51 L0 1 Z" fill="#ca49a1" stroke="#316032" stroke-width="0.5"/><path d="M3 41 L17 97 L76 20 Z" fill="#1cabb0" stroke="#5a01ee" stroke-width="0.5"/><path d="M59 33 L29 64 L63 87 Z" fill="#38a5d4" stroke="#ef912d" stroke-width="0.5"/><path d="M84 73 L87 27 L57 14 Z" fill="#a4485c" stroke="#287424" stroke-width="0.5"/><path d="M93 16 L100 46 L10 89 Z" fill="#1c0c3d" stroke="#bc9206" stroke-width="0.5"/><path d="M1 76 L57 10 L58 35 Z" fill="#25c245" stroke="#edbe31" stroke-width="0.5"/><path d="M3 58 L85 99 L28 18 Z" fill="#194ea8" stroke="#87c9d0" stroke-width="0.5"/><path d="M83 74 L69 22 L21 69 Z" fill="#7dcaa3" stroke="#b5ad8c" stroke-width="0.5"/><path d="M75 38 L76 75 L63 17 Z" fill="#895823" stroke="#007159" stroke-width="0.5"/><path d="M93 36 L3 65 L27 43 Z" fill="#c773e5" stroke="#26f21a" stroke-width="0.5"/><path d="M63 90 L91 95 L16 6 Z" fill="#fb2798" stroke="#fdefe3" stroke-width="0.5"/><path d="M11 69 L71 23 L98 6 Z" fill="#579581" stroke="#f0eacd" stroke-width="0.5"/><path d="M46 26 L32 98 L87 67 Z" fill="#fc3643" stroke="#4cf8c7" stroke-width="0.5"/><path d="M52 54 L4 34 L95 71 Z" fill="#dd12e0" stroke="#d99540" stroke-width="0.5"/><path d="M92 1 L12 54 L79 92 Z" fill="#293e34" stroke="#06a023" stroke-width="0.5"/><path d="M27 28 L7 77 L77 44 Z" fill="#68124c" stroke="#f11fd3" stroke-width="0.5"/><path d="M68 11 L49 73 L53 72 Z" fill="#f30cc7" stroke="#4e98b5" stroke-width="0.5"/><path d="M0 90 L99 22 L10 2 Z" fill="#9c808a" stroke="#9ce6a8" stroke-width="0.5"/><path d="M55 92 L32 14 L17 51 Z" fill="#7d7ad3" stroke="#b6eacb" stroke-width="0.5"/><path d="M34 32 L31 49 L10 90 Z" fill="#9cbb47" stroke="#098e12" stroke-width="0.5"/><path d="M55 82 L31 6 L84 95 Z" fill="#fa9672" stroke="#adb83f" stroke-width="0.5"/><path d="M98 77 L17 8 L63 3 Z" fill="#df40c1" stroke="#af5cd4" stroke-width="0.5"/><path d="M70 51 L26 17 L52 34 Z" fill="#ded41f" stroke="#d023be" stroke-width="0.5"/><path d="M55 22 L70 84 L98 18 Z" fill="#04d794" stroke="#87d3b6" stroke-width="0.5"/><path d="M49 6 L47 21 L77 68 Z" fill="#ce95dc" stroke="#7cb88f" stroke-width="0.5"/><path d="M90 79 L22 76 L16 8 Z" fill="#4abbf6" stroke="#b0cb5d" stroke-width="0.5"/><path d="M27 30 L13 14 L82 89 Z" fill="#e3251e" stroke="#d9b906" stroke-width="0.5"/><path d="M40 35 L45 52 L91 98 Z" fill="#1bd9a4" stroke="#a40be6" stroke-width="0.5"/><path d="M93 45 L90 100 L51 78 Z" fill="#07e470" stroke="#75cbea" stroke-width="0.5"/><path d="M57 31 L12 35 L67 3 Z" fill="#11fade" stroke="#fc92b4" stroke-width="0.5"/><path d="M95 26 L32 54 L61 48 Z" fill="#5beff6" stroke="#b83cf6" stroke-width="0.5"/><path d="M76 11 L43 48 L45 77 Z" fill="#eb2b5c" stroke="#65956f" stroke-width="0.5"/><path d="M12 68 L87 51 L96 58 Z" fill="#de74f9" stroke="#79f497" stroke-width="0.5"/><path d="M25 80 L45 17 L17 45 Z" fill="#16bf8b" stroke="#8bcf2a" stroke-width="0.5"/><path d="M52 75 L74 53 L70 84 Z" fill="#ebeef9" stroke="#5c02c6" stroke-width="0.5"/><path d="M86 61 L79 63 L69 94 Z" fill="#62b035" stroke="#7a5500" stroke-width="0.5"/><path d="M36 35 L62 43 L57 18 Z" fill="#67f55f" stroke="#01d63f" stroke-width="0.5"/><path d="M50 45 L62 91 L54 76 Z" fill="#516ca9" stroke="#269948" stroke-width="0.5"/><path d="M62 84 L19 80 L44 50 Z" fill="#e699f3" stroke="#b286b7" stroke-width="0.5"/><path d="M2 25 L82 33 L28 90 Z" fill="#ce8d08" stroke="#41680c" stroke-width="0.5"/><path d="M81 66 L85 41 L93 62 Z" fill="#06597e" stroke="#e67375" stroke-width="0.5"/><path d="M70 44 L23 87 L35 29 Z" fill="#671fb4" stroke="#067220" stroke-width="0.5"/><path d="M47 27 L92 76 L46 53 Z" fill="#3aedd5" stroke="#20cd8c" stroke-width="0.5"/><path d="M24 4 L16 41 L76 9 Z" fill="#b8c4a1" stroke="#aea638" stroke-width="0.5"/><path d="M84 82 L39 20 L90 93 Z" fill="#1e14ae" stroke="#2bea4c" stroke-width="0.5"/><path d="M21 10 L55 77 L46 88 Z" fill="#d78deb" stroke="#e14e6a" stroke-width="0.5"/><path d="M25 45 L5 62 L64 88 Z" fill="#e44ae1" stroke="#7e667a" stroke-width="0.5"/><path d="M73 7 L29 63 L65 78 Z" fill="#e04873" stroke="#508876" stroke-width="0.5"/><path d="M96 70 L91 65 L59 96 Z" fill="#46bbe5" stroke="#5727f6" stroke-width="0.5"/><path d="M70 93 L31 91 L18 8 Z" fill="#f569fa" stroke="#da1694" stroke-width="0.5"/><path d="M52 55 L21 75 L36 11 Z" fill="#fdc992" stroke="#867a39" stroke-width="0.5"/><path d="M81 16 L21 68 L87 24 Z" fill="#097944" stroke="#4e62b6" stroke-width="0.5"/><path d="M34 44 L55 26 L20 58 Z" fill="#613099" stroke="#636adf" stroke-width="0.5"/><path d="M52 22 L99 50 L76 12 Z" fill="#b6c833" stroke="#bc3b77" stroke-width="0.5"/><path d="M38 33 L1 81 L73 58 Z" fill="#f757ac" stroke="#8974a4" stroke-width="0.5"/><path d="M79 12 L96 83 L10 53 Z" fill="#5d095a" stroke="#1296b4" stroke-width="0.5"/><path d="M34 81 L54 82 L24 39 Z" fill="#f49753" stroke="#a7dcf7" stroke-width="0.5"/><path d="M6 6 L59 11 L13 22 Z" fill="#a8b6f1" stroke="#b5435c" stroke-width="0.5"/><path d="M12 18 L7 33 L75 81 Z" fill="#bcf44e" stroke="#da3bc9" stroke-width="0.5"/><path d="M39 82 L6 7 L46 98 Z" fill="#16d05c" stroke="#f0ca2b" stroke-width="0.5"/><path d="M98 85 L7 16 L4 21 Z" fill="#492c19" stroke="#a01bf7" stroke-width="0.5"/><path d="M18 38 L27 26 L70 21 Z" fill="#f7ee1d" stroke="#558cc3" stroke-width="0.5"/><path d="M3 60 L20 34 L12 71 Z" fill="#c8ff16" stroke="#7fc130" stroke-width="0.5"/><path d="M31 77 L8 20 L26 70 Z" fill="#8cc29e" stroke="#3fbada" stroke-width="0.5"/><path d="M47 3 L16 13 L72 13 Z" fill="#b929a4" stroke="#0cfcdb" stroke-width="0.5"/><path d="M42 78 L50 97 L3 85 Z" fill="#22b531" stroke="#b2a15c" stroke-width="0.5"/><path d="M75 87 L29 42 L61 48 Z" fill="#90cac8" stroke="#7d7a33" stroke-width="0.5"/><path d="M70 97 L45 55 L88 15 Z" fill="#0fa53e" stroke="#dcfbac" stroke-width="0.5"/><path d="M14 85 L82 56 L24 31 Z" fill="#16f28c" stroke="#ed629f" stroke-width="0.5"/><path d="M94 19 L7 52 L62 1 Z" fill="#e82901" stroke="#b4a1a2" stroke-width="0.5"/><path d="M37 8 L19 90 L22 25 Z" fill="#0791ba" stroke="#604c48" stroke-width="0.5"/><path d="M76 37 L55 95 L6 56 Z" fill="#c1f606" stroke="#6437c9" stroke-width="0.5"/><path d="M98 33 L80 45 L77 45 Z" fill="#a727e6" stroke="#e50362" stroke-width="0.5"/><path d="M19 0 L8 12 L25 4 Z" fill="#a9ea24" stroke="#40a4a9" stroke-width="0.5"/><path d="M80 38 L36 7 L58 87 Z" fill="#cfbec2" stroke="#9132df" stroke-width="0.5"/><path d="M55 71 L73 16 L100 48 Z" fill="#4fbc0c" stroke="#14a470" stroke-width="0.5"/><path d="M85 8 L80 40 L42 51 Z" fill="#808cba" stroke="#ce1026" stroke-width="0.5"/><path d="M11 32 L83 63 L41 40 Z" fill="#86968f" stroke="#a9d5e4" stroke-width="0.5"/><path d="M76 89 L69 29 L80 75 Z" fill="#f58359" stroke="#4e7f4e" stroke-width="0.5"/><path d="M77 80 L83 6 L66 82 Z" fill="#c605b7" stroke="#94693e" stroke-width="0.5"/><path d="M77 69 L43 6 L2 78 Z" fill="#7cf3b0" stroke="#c0a9a1" stroke-width="0.5"/><path d="M89 59 L15 89 L27 6 Z" fill="#cbc1c0" stroke="#3b0fbc" stroke-width="0.5"/><path d="M48 86 L13 40 L17 31 Z" fill="#db568a" stroke="#d0b342" stroke-width="0.5"/><path d="M32 28 L55 17 L66 72 Z" fill="#90c18a" stroke="#9b9fd0" stroke-width="0.5"/><path d="M6 83 L80 18 L96 98 Z" fill="#6163ed" stroke="#839a5e" stroke-width="0.5"/><path d="M1 31 L31 86 L29 95 Z" fill="#4e401a" stroke="#81a551" stroke-width="0.5"/><path d="M22 63 L42 35 L92 49 Z" fill="#2e2ac5" stroke="#4843eb" stroke-width="0.5"/><path d="M98 46 L90 60 L79 85 Z" fill="#b45664" stroke="#6d3131" stroke-width="0.5"/><path d="M93 80 L30 43 L13 63 Z" fill="#043602" stroke="#cc389a" stroke-width="0.5"/><path d="M100 47 L33 37 L43 25 Z" fill="#101128" stroke="#83a1b7" stroke-width="0.5"/><path d="M21 92 L18 9 L40 50 Z" fill="#cef7ef" stroke="#e29019" stroke-width="0.5"/><path d="M79 63 L45 4 L13 19 Z" fill="#3485b5" stroke="#33c61d" stroke-width="0.5"/><path d="M25 79 L10 47 L75 69 Z" fill="#e0c8c2" stroke="#69e857" stroke-width="0.5"/><path d="M12 45 L82 5 L7 100 Z" fill="#10e070" stroke="#9d2b32" stroke-width="0.5"/><path d="M33 16 L46 47 L57 19 Z" fill="#a35064" stroke="#39eec1" stroke-width="0.5"/><path d="M46 70 L73 20 L60 11 Z" fill="#5f0e06" stroke="#b5c4f2" stroke-width="0.5"/><path d="M100 78 L63 17 L80 83 Z" fill="#dd60e9" stroke="#0aa4fb" stroke-width="0.5"/><path d="M39 88 L11 2 L6 11 Z" fill="#e8a157" stroke="#b87c69" stroke-width="0.5"/><path d="M90 20 L99 14 L50 5 Z" fill="#befa38" stroke="#049c73" stroke-width="0.5"/><path d="M98 90 L47 44 L14 54 Z" fill="#0efb6c" stroke="#03e12e" stroke-width="0.5"/><path d="M30 45 L22 80 L16 98 Z" fill="#40cb27" stroke="#b9a066" stroke-width="0.5"/><path d="M70 55 L22 64 L76 0 Z" fill="#18331a" stroke="#d3d4f4" stroke-width="0.5"/><path d="M81 60 L16 8 L47 54 Z" fill="#c0f02d" stroke="#5cb87c" stroke-width="0.5"/><path d="M99 65 L57 10 L63 6 Z" fill="#5fda11" stroke="#7a660f" stroke-width="0.5"/><path d="M81 85 L73 59 L74 8 Z" fill="#67a0fb" stroke="#9a94dc" stroke-width="0.5"/><path d="M32 66 L42 60 L64 14 Z" fill="#bdb9c7" stroke="#e1ba88" stroke-width="0.5"/><path d="M57 34 L62 21 L83 25 Z" fill="#40fcf4" stroke="#c6a746" stroke-width="0.5"/><path d="M78 55 L8 12 L55 99 Z" fill="#ef5f14" stroke="#117270" stroke-width="0.5"/><path d="M12 70 L72 88 L20 86 Z" fill="#555d9a" stroke="#d09fb1" stroke-width="0.5"/><path d="M52 59 L26 75 L29 75 Z" fill="#52e36f" stroke="#cf247f" stroke-width="0.5"/><path d="M33 77 L71 47 L75 0 Z" fill="#5cd3ff" stroke="#7c92a7" stroke-width="0.5"/><path d="M50 59 L100 84 L77 84 Z" fill="#82cc05" stroke="#a4cb9b" stroke-width="0.5"/><path d="M13 32 L26 28 L47 80 Z" fill="#b9642f" stroke="#4002e2" stroke-width="0.5"/><path d="M24 24 L2 4 L11 30 Z" fill="#c0a7f3" stroke="#3e37df" stroke-width="0.5"/><path d="M77 5 L52 42 L62 30 Z" fill="#76a41b" stroke="#eb1309" stroke-width="0.5"/><path d="M3 96 L30 63 L43 42 Z" fill="#1339db" stroke="#57551f" stroke-width="0.5"/><path d="M99 68 L98 30 L70 74 Z" fill="#709b9c" stroke="#ec2560" stroke-width="0.5"/><path d="M70 20 L98 40 L11 67 Z" fill="#8710fc" stroke="#39192e" stroke-width="0.5"/><path d="M38 1 L99 50 L33 97 Z" fill="#7e736e" stroke="#5c82bf" stroke-width="0.5"/><path d="M80 55 L71 12 L55 3 Z" fill="#d659a4" stroke="#c57ad9" stroke-width="0.5"/><path d="M52 21 L43 78 L65 28 Z" fill="#53321a" stroke="#a57fbc" stroke-width="0.5"/><path d="M65 97 L16 83 L33 89 Z" fill="#3971aa" stroke="#82b068" stroke-width="0.5"/><path d="M68 30 L8 7 L29 11 Z" fill="#56a35f" stroke="#b5a39d" stroke-width="0.5"/><path d="M30 11 L32 72 L50 35 Z" fill="#bc97f1" stroke="#a086b2" stroke-width="0.5"/><path d="M29 75 L63 27 L71 39 Z" fill="#c2101b" stroke="#056941" stroke-width="0.5"/><path d="M46 74 L60 8 L49 61 Z" fill="#ae9ecc" stroke="#724966" stroke-width="0.5"/><path d="M98 82 L79 34 L81 61 Z" fill="#973eaa" stroke="#faf4ad" stroke-width="0.5"/><path d="M92 76 L37 41 L75 95 Z" fill="#70189d" stroke="#9de802" stroke-width="0.5"/></svg>